<?xml version="1.0" standalone="no"?>
<!DOCTYPE svg PUBLIC "-//W3C//DTD SVG 20010904//EN"
 "http://www.w3.org/TR/2001/REC-SVG-20010904/DTD/svg10.dtd">
<svg version="1.0" xmlns="http://www.w3.org/2000/svg"
 width="835.000000pt" height="814.000000pt" viewBox="0 0 835.000000 814.000000"
 preserveAspectRatio="xMidYMid meet">
<metadata>
Created by potrace 1.16, written by Peter Selinger 2001-2019
</metadata>
<g transform="translate(0.000000,814.000000) scale(0.100000,-0.100000)"
fill="#000000" stroke="none">
<path d="M4960 8044 c-116 -20 -155 -29 -225 -49 -236 -69 -350 -130 -476
-256 -96 -95 -175 -206 -223 -310 l-32 -69 -55 58 c-30 31 -82 97 -115 146
-96 144 -216 239 -404 322 -277 122 -508 142 -847 74 -303 -61 -478 -154 -694
-369 -91 -92 -156 -167 -198 -230 -82 -125 -121 -203 -114 -230 6 -22 -6 -28
-24 -10 -7 7 -21 -1 -47 -28 -36 -37 -36 -37 -26 -9 6 16 18 42 28 58 14 25
15 30 2 38 -18 11 -46 -3 -63 -33 -8 -12 -45 -78 -82 -147 -38 -69 -76 -136
-85 -150 -28 -41 -128 -241 -145 -289 -20 -57 -19 -153 1 -222 17 -58 158
-337 205 -405 53 -78 112 -116 224 -145 93 -25 135 -25 135 -1 0 27 -35 55
-125 100 -46 23 -94 56 -114 78 -65 74 -168 261 -210 382 -40 118 -27 189 66
365 69 130 203 340 203 318 0 -7 -11 -50 -25 -95 -39 -132 -55 -282 -54 -519
1 -117 4 -250 7 -297 7 -78 9 -85 30 -88 l22 -3 -22 -19 c-27 -21 -16 -40 12
-22 24 15 74 16 65 2 -10 -15 49 -12 71 4 18 14 18 15 1 21 -10 4 -31 5 -47 1
-35 -6 -41 9 -7 18 36 10 75 7 79 -6 3 -9 17 -9 59 1 42 10 160 11 189 1 11
-3 -37 -19 -62 -19 -20 -1 -26 -5 -22 -16 11 -28 94 -19 149 16 56 36 136 59
202 59 81 0 197 38 238 78 36 35 37 37 29 87 -5 27 -7 86 -6 130 2 44 -2 117
-8 163 -15 104 -10 123 36 146 44 21 34 32 119 -137 70 -140 89 -218 64 -264
-17 -32 -13 -74 12 -143 28 -76 56 -118 89 -135 38 -19 80 -20 80 0 0 17 70
59 125 74 58 16 243 31 289 23 22 -4 41 -12 43 -18 2 -7 -40 -33 -94 -60 -81
-39 -111 -49 -174 -54 -106 -9 -171 -41 -183 -92 -5 -21 -13 -38 -16 -38 -4 0
-28 -9 -54 -20 -42 -19 -45 -22 -33 -41 11 -19 19 -20 87 -16 61 4 90 12 155
43 l80 39 140 2 140 2 -75 -19 c-41 -11 -106 -24 -145 -30 -40 -6 -75 -17 -81
-25 -7 -9 -52 -31 -102 -51 -100 -39 -132 -64 -112 -89 20 -24 95 -18 200 15
78 25 216 50 278 50 8 0 -51 -33 -130 -73 -78 -40 -174 -93 -213 -118 -38 -25
-86 -54 -105 -65 -51 -28 -72 -50 -68 -71 7 -34 73 -19 211 51 106 53 127 61
127 46 0 -10 12 -32 26 -49 14 -17 24 -37 21 -45 -12 -31 -358 -103 -602 -125
-66 -6 -183 -18 -260 -26 -77 -8 -192 -19 -255 -24 -101 -7 -130 -14 -233 -54
-111 -43 -121 -45 -150 -32 -18 7 -45 18 -61 25 -20 8 -26 14 -18 19 8 5 -1
12 -25 19 -21 6 -76 22 -123 36 -47 14 -107 31 -135 37 -27 6 -75 20 -105 30
-30 11 -107 26 -170 34 -132 16 -131 16 -225 61 -191 94 -416 318 -506 507
-13 26 -26 47 -30 47 -10 0 -51 74 -73 133 -26 70 -43 48 -27 -35 30 -151 139
-348 251 -451 99 -93 277 -229 347 -269 95 -53 165 -73 373 -108 102 -18 188
-34 192 -36 6 -4 314 -84 323 -84 6 0 25 -46 71 -167 19 -51 45 -116 59 -145
14 -29 21 -57 16 -63 -13 -16 -20 -213 -10 -275 16 -101 29 -734 19 -910 -10
-175 2 -639 20 -740 49 -286 82 -454 99 -500 50 -143 53 -164 32 -232 -43
-138 -77 -366 -87 -578 -9 -223 21 -579 66 -765 11 -44 31 -172 44 -284 25
-203 36 -254 36 -170 0 32 3 40 10 29 5 -8 10 -28 10 -45 l1 -30 11 25 c5 14
10 95 10 180 0 141 -13 275 -53 575 -6 44 -13 181 -16 304 -6 224 -2 280 40
631 l12 95 22 -37 c38 -64 51 -51 38 40 -6 43 -15 83 -18 89 -13 21 -88 268
-108 353 -43 188 -59 418 -57 784 5 661 -2 1113 -18 1225 -12 78 -13 106 -4
111 6 4 11 10 11 14 -3 20 1 26 14 26 8 0 15 7 15 15 0 18 16 20 23 3 4 -10 6
-10 6 0 1 7 -24 62 -55 124 -66 132 -117 259 -106 269 18 17 195 70 263 78 41
5 169 12 284 15 177 5 522 37 544 51 4 2 54 13 111 25 111 22 212 64 250 105
15 16 24 41 28 73 4 45 2 51 -38 97 l-42 48 24 12 c12 7 86 36 163 65 145 55
188 84 201 135 11 44 -1 58 -43 50 -20 -4 -54 -15 -75 -26 -54 -28 -63 -24
-32 16 28 38 48 106 39 136 -8 23 -65 49 -109 49 -51 0 -59 12 -27 42 39 37
65 133 43 164 -13 20 -99 34 -204 34 -126 0 -210 -13 -307 -46 -69 -23 -75
-24 -92 -8 -24 22 -53 99 -43 115 16 27 22 97 14 166 -8 58 -21 96 -69 190
-63 125 -114 188 -160 198 -26 6 -47 -1 -130 -39 -69 -31 -100 -132 -82 -261
6 -38 8 -120 4 -182 l-6 -112 -45 -16 c-25 -8 -69 -15 -99 -15 -53 0 -154 -29
-205 -58 -21 -12 -32 -13 -51 -5 -35 16 -228 -7 -291 -36 -32 -14 -53 -18 -59
-12 -6 6 -10 132 -11 318 -1 338 7 407 65 584 91 277 286 535 524 692 231 152
653 240 926 192 176 -30 346 -99 473 -190 93 -67 124 -99 187 -201 28 -45 61
-86 73 -92 41 -18 146 -158 181 -240 53 -123 53 -115 -10 -141 -54 -23 -55
-23 -87 -4 -38 22 -54 51 -68 123 -6 31 -31 87 -66 146 -85 142 -121 162 -188
101 -43 -40 -45 -55 -8 -68 17 -6 42 -32 67 -72 62 -97 68 -108 82 -175 16
-77 33 -104 89 -139 51 -32 54 -50 17 -84 -58 -53 -55 -53 -118 1 -67 57 -94
62 -152 29 -42 -23 -53 -36 -53 -60 0 -11 12 -18 38 -22 21 -4 42 -15 49 -27
7 -11 31 -29 53 -40 22 -11 40 -22 40 -24 0 -2 -7 -20 -15 -39 -8 -20 -15 -60
-15 -89 -1 -50 -3 -54 -40 -80 -37 -26 -39 -29 -28 -53 10 -23 8 -29 -24 -63
-63 -67 -124 -185 -112 -217 16 -41 93 0 133 71 31 54 97 134 110 134 4 0 20
-27 36 -60 16 -33 43 -74 60 -93 27 -28 31 -39 27 -73 -3 -24 -17 -54 -37 -79
-50 -62 -67 -99 -52 -117 34 -43 145 -50 200 -12 47 31 47 63 2 77 -41 13 -40
12 -16 50 11 19 21 42 21 51 0 15 5 16 33 9 40 -10 200 -11 245 -1 29 7 34 4
51 -23 13 -21 17 -43 14 -72 -3 -27 1 -49 10 -61 13 -18 18 -18 60 -6 45 14
46 15 63 77 16 60 16 65 -1 103 -10 22 -16 42 -14 44 2 2 25 15 51 30 l46 27
64 -22 c79 -26 125 -26 178 1 l42 21 -7 47 c-4 26 -9 50 -12 55 -7 11 -58 8
-70 -4 -11 -11 -69 -4 -78 10 -2 5 11 39 30 77 19 38 40 94 47 126 10 50 15
57 39 62 16 3 55 -3 88 -14 64 -20 91 -18 134 12 69 49 11 100 -158 138 -44
10 -50 9 -71 -11 -13 -12 -26 -21 -28 -18 -2 2 -18 28 -35 58 -22 36 -30 60
-25 75 3 11 42 55 85 96 l79 75 -21 33 c-14 22 -29 32 -46 32 -24 0 -83 -41
-155 -109 -21 -19 -39 -33 -40 -30 -2 2 -23 26 -48 52 -44 47 -44 49 -25 63
35 25 86 76 102 101 15 23 15 26 -10 51 l-27 27 -37 -20 c-40 -22 -65 -45
-102 -97 l-24 -33 -90 0 -90 1 -35 89 c-49 129 -49 126 -8 206 98 193 233 352
362 427 127 73 394 152 517 152 35 0 103 -9 153 -20 49 -11 118 -27 155 -35
36 -7 87 -21 115 -31 69 -23 259 -116 320 -157 61 -40 248 -201 291 -250 39
-44 135 -188 201 -299 28 -48 95 -152 148 -230 148 -219 327 -525 363 -620 10
-27 8 -29 -37 -52 -26 -13 -59 -38 -75 -55 -15 -17 -35 -31 -44 -31 -21 0
-191 20 -220 26 -29 5 -66 73 -289 529 -112 229 -138 275 -154 275 -4 0 -24
-13 -44 -29 -20 -16 -51 -32 -70 -35 -69 -13 -176 -162 -176 -246 0 -19 7 -73
16 -120 8 -47 19 -114 24 -150 4 -36 18 -87 30 -115 32 -73 72 -186 68 -191
-3 -2 -51 8 -109 22 -86 21 -120 25 -199 21 -88 -4 -104 -8 -210 -56 -115 -51
-170 -93 -185 -142 -10 -32 3 -99 28 -143 37 -67 64 -76 228 -79 79 -1 157 2
172 6 17 5 26 4 23 -1 -3 -6 -43 -15 -88 -21 -125 -18 -150 -27 -190 -68 -41
-44 -54 -66 -74 -131 -19 -64 -18 -90 6 -104 11 -7 20 -18 20 -24 0 -7 9 -14
20 -17 15 -4 20 0 20 16 1 21 1 21 15 3 13 -17 15 -17 21 -3 4 11 17 17 35 17
16 0 29 4 29 10 0 5 7 7 15 4 10 -4 15 0 15 11 0 12 5 15 16 11 9 -3 18 -6 20
-6 2 0 4 -7 4 -16 0 -8 -4 -13 -9 -10 -7 5 -26 -54 -19 -59 12 -9 139 30 180
55 27 17 52 29 55 26 3 -3 -4 -18 -16 -34 -12 -17 -21 -35 -21 -41 0 -6 -4
-11 -10 -11 -5 0 -10 -6 -10 -14 0 -7 -7 -27 -15 -42 -20 -40 -19 -49 11 -73
36 -29 129 -29 184 -1 22 11 41 20 42 20 2 0 4 -19 4 -42 1 -34 8 -47 33 -70
27 -24 40 -28 91 -28 74 0 262 68 440 159 63 32 135 62 160 66 51 8 232 65
240 75 3 3 26 16 52 29 31 15 48 30 52 46 4 16 13 25 26 25 19 0 20 -7 21
-167 0 -156 3 -223 10 -248 1 -5 0 -21 -4 -35 -3 -14 -8 -46 -10 -72 l-4 -48
28 21 c24 17 29 18 29 5 0 -9 4 -16 9 -16 16 0 -1 -48 -18 -53 -45 -11 -57
-182 -38 -527 8 -146 13 -283 11 -305 -2 -22 -11 -114 -20 -205 -21 -217 -31
-867 -15 -1005 6 -55 16 -122 21 -150 5 -27 15 -77 21 -109 8 -41 14 -55 20
-45 16 25 26 -7 38 -134 7 -67 14 -145 17 -173 l6 -51 -44 -7 c-23 -4 -65 -10
-93 -13 -77 -8 -69 -16 13 -11 39 2 72 0 72 -4 0 -10 -153 -14 -350 -9 l-145
3 -52 -41 c-51 -40 -71 -76 -59 -106 10 -27 61 -18 105 19 51 43 127 57 289
55 113 -1 220 17 246 42 20 18 24 6 36 -107 25 -230 6 -508 -61 -899 -5 -33
-15 -87 -20 -120 -6 -33 -12 -82 -14 -109 -3 -27 -9 -54 -15 -60 -5 -5 -10
-19 -10 -30 0 -18 2 -18 10 -6 8 12 10 9 6 -10 -3 -14 -7 -50 -10 -80 l-4 -55
11 47 c18 71 25 66 23 -16 0 -41 -4 -72 -7 -70 -7 4 -19 -32 -18 -56 0 -10 3
-9 10 5 7 16 8 14 3 -10 -3 -16 -10 -33 -16 -36 -7 -4 -8 -22 -5 -45 5 -27 2
-43 -9 -55 -14 -16 -14 -17 3 -15 10 2 20 11 21 22 2 10 10 33 17 49 7 17 19
55 25 85 7 30 16 69 21 85 9 31 47 203 69 310 7 33 21 96 31 140 10 44 21 103
25 130 3 28 9 55 13 60 3 6 6 21 7 35 1 14 11 79 23 144 27 157 36 352 22 496
-6 63 -20 219 -31 345 -11 127 -28 251 -36 278 -17 52 -65 107 -94 107 -22 0
-25 45 -28 515 -2 300 6 472 35 705 13 109 16 217 14 570 -1 239 -6 439 -10
445 -5 5 -5 51 0 100 12 138 11 313 -3 338 -6 12 -13 33 -14 47 -2 14 -5 37
-7 53 -2 15 -9 33 -15 39 -13 13 -16 38 -4 38 4 0 8 12 8 26 1 16 -2 24 -10
21 -9 -4 -11 3 -8 21 3 15 7 21 10 14 2 -6 8 -10 13 -6 5 3 9 -5 9 -18 0 -13
5 -30 11 -38 7 -11 8 -3 4 29 -5 30 -3 46 6 51 15 10 -55 32 -76 24 -9 -4 -13
2 -11 20 2 17 -2 26 -11 26 -8 0 -11 -4 -8 -10 15 -24 -15 -47 -67 -53 -137
-14 -188 -28 -223 -62 -23 -21 -35 -42 -35 -58 0 -27 -13 -33 -110 -52 -19 -4
-81 -30 -138 -57 -89 -44 -308 -127 -381 -145 -24 -6 -24 -5 -18 42 9 59 52
156 95 214 35 46 49 93 38 135 -8 34 -28 33 -81 -4 -53 -36 -55 -36 -55 -6 0
29 -34 56 -69 56 -13 0 -61 -19 -105 -43 -45 -24 -103 -52 -131 -62 -27 -10
-59 -24 -70 -31 -47 -30 -160 -64 -211 -64 -62 0 -68 12 -34 67 14 24 28 33
57 38 119 18 165 30 267 69 143 54 200 85 204 112 2 13 14 23 35 30 28 8 32
14 35 46 4 50 -12 57 -152 64 -105 5 -122 3 -202 -21 -93 -28 -156 -33 -269
-19 l-70 9 0 35 c0 34 1 35 90 74 105 46 157 50 295 23 113 -23 161 -22 193 3
15 12 40 20 65 20 40 0 72 23 72 51 0 8 -9 38 -20 68 -16 46 -18 60 -8 97 11
41 11 45 -14 71 -54 58 -100 185 -114 320 -8 76 0 123 27 151 30 33 62 28 82
-10 154 -302 271 -520 296 -550 17 -20 31 -48 31 -62 0 -17 14 -40 41 -67 38
-38 45 -41 78 -35 20 4 105 8 189 9 l154 2 20 28 c11 15 27 27 36 27 13 0 12
-3 -4 -15 -18 -14 -18 -14 6 -14 14 0 34 4 45 8 12 5 26 4 34 -3 12 -9 13 -8
6 4 -7 12 -6 13 6 3 17 -14 45 -1 35 16 -5 7 5 11 30 11 41 0 104 19 104 32 0
18 2 24 15 38 74 85 113 475 65 648 -76 274 -260 445 -575 537 -100 29 -154
31 -195 10 -30 -15 -40 -35 -19 -35 6 0 9 -9 6 -20 -7 -26 -4 -27 79 -40 101
-15 281 -74 339 -111 123 -77 221 -214 264 -371 19 -69 -1 -437 -30 -540 -13
-49 -35 -63 -46 -30 -44 129 -194 393 -383 677 -58 88 -142 219 -185 290 -168
278 -238 357 -487 546 -83 63 -314 174 -413 198 -307 73 -394 87 -465 75z
m-665 -1117 c11 -3 23 -6 26 -6 17 -2 130 -131 177 -201 46 -70 52 -86 52
-131 0 -80 -44 -192 -101 -253 -46 -50 -76 -59 -47 -14 9 13 18 60 22 106 3
45 9 118 12 161 6 70 4 85 -17 127 -28 59 -155 190 -192 199 -41 11 -33 28 11
22 20 -3 46 -7 57 -10z m-134 -106 c52 -25 138 -106 165 -157 16 -29 17 -39 5
-83 -7 -29 -11 -91 -10 -147 3 -94 2 -98 -22 -116 -34 -26 -106 -15 -151 22
-38 32 -122 185 -133 242 -8 40 11 98 32 98 6 0 30 -21 53 -47 40 -45 42 -51
36 -96 -9 -83 14 -106 33 -32 10 39 9 50 -8 84 -11 21 -36 52 -56 70 -21 18
-35 35 -31 38 7 7 76 -44 76 -57 0 -4 16 -24 35 -43 31 -31 35 -41 35 -85 0
-33 -6 -56 -16 -67 -9 -9 -14 -19 -11 -22 3 -3 14 3 24 13 28 28 24 154 -6
214 -30 58 -68 98 -110 116 -35 14 -56 11 -45 -8 5 -7 1 -9 -9 -5 -12 5 -17 1
-17 -14 0 -10 -12 -38 -27 -61 -16 -22 -32 -48 -38 -57 -5 -9 -14 -19 -19 -23
-14 -10 30 -178 54 -208 11 -14 29 -43 41 -64 26 -49 51 -71 109 -99 l45 -21
-40 -7 c-73 -14 -113 -9 -200 22 -98 36 -131 67 -168 161 -19 51 -25 58 -49
58 -16 0 -28 5 -28 10 0 6 9 10 20 10 13 0 24 10 31 28 31 79 127 256 158 292
62 71 147 86 242 41z"/>
<path d="M8190 7035 c0 -35 -12 -67 -51 -142 -28 -54 -90 -172 -136 -262 -47
-90 -102 -188 -122 -216 -107 -155 -310 -371 -527 -561 -182 -158 -230 -212
-236 -261 -6 -46 -3 -51 22 -35 26 16 33 15 26 -4 -3 -9 -3 -21 1 -27 5 -8 9
-4 13 9 3 11 55 63 115 114 372 317 595 570 757 860 247 440 251 447 243 468
-8 20 -18 8 -39 -50 -10 -27 -22 -48 -27 -48 -13 0 -11 24 4 39 9 10 9 12 0 7
-8 -4 -5 14 7 50 11 32 18 60 15 62 -3 3 -5 0 -5 -6 0 -7 -5 -12 -10 -12 -6 0
-10 6 -9 13 4 33 -2 47 -21 47 -17 0 -20 -7 -20 -45z"/>
<path d="M4018 5840 c-23 -19 -23 -20 -5 -50 16 -30 16 -35 1 -87 -21 -72 -16
-174 10 -202 29 -31 49 -10 41 43 -4 26 -1 57 9 85 9 24 20 70 26 103 8 54 7
63 -12 88 -28 39 -43 43 -70 20z"/>
<path d="M4516 5641 c-9 -14 5 -121 15 -121 5 0 9 -5 9 -12 0 -9 -3 -9 -12 0
-7 7 -25 12 -40 12 -21 0 -28 -5 -28 -20 0 -11 -7 -20 -15 -20 -21 0 -11 -57
20 -120 12 -25 28 -63 35 -84 7 -22 28 -73 47 -115 48 -105 68 -161 92 -268
24 -105 25 -124 10 -207 -27 -157 -58 -262 -89 -305 -11 -16 -53 -45 -93 -65
-60 -30 -84 -36 -135 -36 -54 0 -63 3 -78 25 -9 13 -18 44 -21 67 -3 24 -12
56 -20 71 -10 20 -13 48 -9 91 7 77 -8 105 -51 99 -22 -4 -33 -14 -45 -41 -9
-21 -32 -62 -52 -92 -20 -30 -36 -61 -36 -70 0 -19 -83 -96 -129 -119 -48 -25
-145 -40 -205 -34 -40 5 -51 11 -68 37 -16 26 -19 44 -15 122 4 94 8 106 69
197 20 31 47 74 58 97 21 40 21 43 4 62 -10 11 -26 17 -36 15 -10 -3 -18 -1
-18 4 0 5 16 73 35 152 19 78 35 151 35 163 0 11 11 53 24 92 14 40 35 121 46
182 24 120 20 159 -23 197 -35 31 -53 34 -76 9 -16 -17 -19 -30 -15 -56 7 -43
-17 -163 -49 -250 -14 -36 -28 -85 -31 -110 -4 -25 -13 -74 -21 -110 -7 -36
-18 -87 -23 -115 -5 -27 -17 -79 -27 -115 -21 -74 -15 -130 15 -160 19 -19 19
-20 -4 -47 -58 -70 -81 -303 -38 -393 32 -70 56 -86 144 -100 66 -11 89 -10
165 5 99 19 136 38 210 107 28 26 55 48 60 48 4 0 17 -20 27 -43 24 -54 61
-94 110 -119 31 -16 52 -19 110 -15 39 2 81 7 93 12 19 6 25 2 39 -31 9 -22
25 -58 35 -82 26 -58 24 -62 -10 -22 -16 19 -32 33 -35 29 -7 -7 62 -109 74
-109 12 0 10 4 84 -185 77 -198 100 -298 93 -405 -6 -93 -44 -253 -75 -319
-11 -23 -24 -56 -28 -73 l-6 -32 -20 27 c-28 38 -48 35 -48 -7 0 -25 16 -55
70 -127 107 -144 231 -215 400 -226 90 -6 143 13 204 73 43 43 185 251 224
329 l25 49 18 -64 c10 -36 18 -72 19 -80 0 -8 8 -31 19 -50 10 -19 23 -51 30
-71 12 -38 46 -77 57 -66 13 13 6 84 -19 197 -42 189 -53 289 -38 354 17 77 8
113 -30 121 -18 4 -36 2 -44 -5 -9 -7 -15 -8 -15 -2 0 5 7 12 15 16 8 3 15 12
15 21 0 8 7 15 15 15 46 0 -23 326 -103 489 -17 32 -33 70 -37 83 -11 35 -86
182 -97 189 -5 3 -9 8 -7 10 1 2 -8 23 -20 46 -11 23 -21 50 -21 60 0 10 -5
25 -11 33 -8 12 -9 10 -4 -9 5 -16 4 -21 -4 -17 -14 9 10 -59 38 -104 24 -41
30 -75 6 -44 -20 26 -19 4 1 -24 9 -13 14 -26 11 -29 -7 -6 -58 93 -106 207
-20 47 -55 119 -78 160 -23 41 -55 112 -72 156 -33 92 -125 279 -141 289 -16
10 -12 35 6 35 18 0 50 -34 64 -67 5 -13 14 -23 20 -23 13 0 13 27 0 35 -5 3
-10 14 -10 23 0 15 2 15 10 2 22 -34 9 43 -20 118 -16 43 -41 115 -55 161 -14
47 -34 93 -45 103 -11 10 -20 32 -20 47 0 32 -22 56 -43 48 -8 -3 -22 -21 -31
-41 -17 -36 -17 -38 30 -204 26 -92 48 -192 49 -222 2 -44 12 -74 53 -150 27
-52 53 -113 56 -135 11 -63 37 -139 53 -152 19 -15 81 -118 101 -168 9 -22 39
-88 68 -146 29 -58 64 -137 79 -175 15 -38 38 -87 50 -109 32 -57 94 -253 100
-316 3 -30 11 -88 19 -129 26 -138 28 -176 9 -217 l-17 -38 -7 115 c-17 271
-44 411 -100 523 -72 143 -216 361 -334 507 -33 41 -80 105 -104 142 -32 50
-50 68 -72 73 -16 4 -31 10 -34 15 -3 4 2 36 11 71 16 62 14 108 -11 244 -5
29 -5 29 6 5 6 -14 14 -43 19 -65 7 -34 8 -35 9 -11 2 43 -54 263 -84 331 -15
33 -36 82 -48 109 -16 35 -19 50 -10 53 7 3 9 11 6 19 -3 8 0 14 6 14 6 0 11
6 11 14 0 7 12 21 26 31 24 16 26 21 22 71 -5 60 -11 72 -30 56 -33 -27 -47
-18 -85 58 -36 70 -63 95 -77 71z m164 -1137 c0 -8 11 -31 24 -52 13 -20 29
-54 36 -74 8 -25 18 -38 29 -38 26 0 189 -212 303 -395 67 -108 100 -173 121
-240 26 -82 48 -251 54 -409 6 -144 5 -149 -13 -141 -45 18 -112 38 -154 45
-25 4 -84 16 -131 26 l-86 19 5 85 c8 140 -11 210 -146 560 -81 211 -82 213
-87 209 -5 -6 32 -118 44 -133 4 -6 11 -29 15 -51 l6 -40 -19 35 c-11 19 -37
79 -58 134 -41 107 -59 115 -23 9 12 -35 20 -67 17 -69 -4 -5 -32 69 -62 166
-9 30 -23 65 -31 77 -17 27 -18 37 -3 27 6 -3 22 -30 35 -58 25 -56 33 -50 9
8 -9 22 -11 36 -5 36 6 0 13 -7 16 -15 14 -35 91 57 108 128 4 17 2 35 -4 42
-6 8 -10 24 -8 37 2 13 -2 28 -9 33 -13 11 -6 68 8 59 5 -3 9 -12 9 -20z m283
-1389 c26 -4 49 -11 52 -15 2 -4 -2 -29 -10 -56 -18 -60 -66 -249 -72 -286 -3
-16 -10 -28 -17 -28 -9 0 -133 60 -204 99 l-24 13 22 15 c28 19 80 131 110
235 l23 77 36 -24 c20 -13 57 -27 84 -30z m247 -61 c33 -14 40 -21 40 -44 0
-16 2 -35 5 -42 3 -8 -20 -50 -52 -94 -74 -100 -94 -124 -110 -124 -9 0 -10 6
-3 23 13 29 50 230 50 268 0 34 12 36 70 13z"/>
<path d="M4051 5051 c-22 -17 -24 -23 -19 -91 4 -54 10 -77 26 -92 30 -30 62
-16 62 26 0 41 -30 176 -39 176 -3 0 -17 -9 -30 -19z"/>
<path d="M3346 4923 c-27 -41 -96 -237 -96 -272 0 -12 -16 -85 -35 -164 -42
-176 -60 -287 -85 -537 -11 -107 -29 -265 -40 -350 -15 -112 -23 -257 -30
-520 -5 -201 -15 -430 -21 -510 -9 -112 -9 -166 1 -241 9 -72 9 -106 1 -131
-12 -37 -47 -307 -56 -438 -15 -201 -48 -417 -129 -838 -79 -405 -135 -807
-116 -826 7 -7 10 -4 10 8 0 23 40 109 47 102 11 -11 43 54 59 117 24 95 81
361 124 577 53 265 84 466 110 710 12 113 31 270 41 350 11 80 20 188 19 240
-2 249 -1 360 9 835 5 281 14 546 20 590 6 44 20 168 31 275 24 226 30 267 71
454 39 177 82 328 126 439 23 58 33 100 31 125 -3 34 -6 37 -35 40 -27 3 -35
-2 -57 -35z"/>
<path d="M5651 2474 c-31 -14 -33 -17 -26 -52 4 -20 10 -39 15 -42 7 -5 86
-124 123 -185 17 -30 60 -116 220 -449 45 -93 87 -174 92 -180 33 -35 76 -106
71 -115 -4 -6 -2 -11 3 -11 6 0 11 -8 11 -19 0 -10 11 -35 25 -55 42 -62 69
-136 43 -120 -8 5 -9 2 -3 -12 4 -10 25 -80 47 -154 42 -147 68 -292 68 -383
0 -53 3 -61 32 -87 34 -31 48 -26 48 16 0 11 5 25 12 32 14 14 12 174 -4 242
-5 25 -12 59 -14 75 -3 17 -9 39 -14 50 -4 11 -22 61 -38 110 -36 107 -67 189
-117 305 -20 47 -43 105 -52 130 -8 25 -35 86 -58 135 -65 137 -119 253 -150
323 -20 44 -31 59 -37 50 -5 -8 -6 -3 -2 13 3 17 1 30 -7 34 -8 6 -10 4 -4 -5
5 -9 4 -11 -4 -6 -7 5 -17 20 -22 34 -6 15 -48 91 -95 168 -46 78 -84 147 -84
153 0 6 -4 11 -9 11 -5 0 -15 2 -23 4 -7 2 -28 -2 -47 -10z"/>
<path d="M2755 2130 c-141 -19 -316 -99 -323 -148 -3 -22 0 -23 35 -21 21 2
63 14 93 27 88 38 151 58 207 66 49 6 54 5 85 -25 47 -44 79 -55 96 -32 14 20
9 55 -14 91 -26 39 -88 54 -179 42z"/>
</g>
</svg>
